<svg width="161" height="161" viewBox="0 0 161 161" fill="none" xmlns="http://www.w3.org/2000/svg">
<path d="M160.247 80.5123C160.247 124.695 124.43 160.512 80.2471 160.512C36.0643 160.512 0.24707 124.695 0.24707 80.5123C0.24707 36.3295 36.0643 0.512329 80.2471 0.512329C124.43 0.512329 160.247 36.3295 160.247 80.5123Z" fill="#224497"/>
<path d="M68.3144 104.708L10.248 101.483L68.3144 96.9663V104.708Z" fill="white"/>
<path d="M69.6022 94.3851L51.5371 71.8035L74.7633 89.8686L69.6022 94.3851Z" fill="white"/>
<path d="M77.9922 88.5787L80.5732 30.5123L85.0897 88.5787H77.9922Z" fill="white"/>
<path d="M87.0202 89.8687L110.892 70.5135L92.1813 94.3852L87.0202 89.8687Z" fill="white"/>
<path d="M92.8262 97.6108L150.247 100.192L92.8262 104.707V97.6108Z" fill="white"/>
<path d="M80.5649 111.16C85.9097 111.16 90.2425 106.827 90.2425 101.482C90.2425 96.1373 85.9097 91.8045 80.5649 91.8045C75.2202 91.8045 70.8874 96.1373 70.8874 101.482C70.8874 106.827 75.2202 111.16 80.5649 111.16Z" fill="#ED1C24"/>
</svg>
