<svg width="161" height="161" viewBox="0 0 161 161" fill="none" xmlns="http://www.w3.org/2000/svg">
<path d="M160.901 80.5123C160.901 124.695 125.084 160.512 80.9014 160.512C36.7186 160.512 0.901367 124.695 0.901367 80.5123C0.901367 36.3295 36.7186 0.512329 80.9014 0.512329C125.084 0.512329 160.901 36.3295 160.901 80.5123Z" fill="white"/>
<path d="M68.9687 104.708L10.9023 101.483L68.9687 96.9663V104.708Z" fill="#224497"/>
<path d="M70.2565 94.3851L52.1914 71.8035L75.4176 89.8686L70.2565 94.3851Z" fill="#224497"/>
<path d="M78.6465 88.5787L81.2275 30.5123L85.744 88.5787H78.6465Z" fill="#224497"/>
<path d="M87.6748 89.8687L111.546 70.5135L92.8359 94.3852L87.6748 89.8687Z" fill="#224497"/>
<path d="M93.4805 97.6108L150.901 100.192L93.4805 104.707V97.6108Z" fill="#224497"/>
<path d="M81.2196 111.16C86.5644 111.16 90.8971 106.827 90.8971 101.482C90.8971 96.1373 86.5644 91.8045 81.2196 91.8045C75.8748 91.8045 71.542 96.1373 71.542 101.482C71.542 106.827 75.8748 111.16 81.2196 111.16Z" fill="#ED1C24"/>
</svg>
