<svg width="33" height="32" viewBox="0 0 33 32" fill="none" xmlns="http://www.w3.org/2000/svg">
<path d="M32.2764 16C32.2764 24.8366 25.1129 32 16.2764 32C7.43981 32 0.276367 24.8366 0.276367 16C0.276367 7.16344 7.43981 0 16.2764 0C25.1129 0 32.2764 7.16344 32.2764 16Z" fill="white"/>
<path d="M13.7192 18.8992L1.27637 18.208L13.7192 17.2401V18.8992Z" fill="#224497"/>
<path d="M13.9951 16.687L10.124 11.8481L15.1011 15.7192L13.9951 16.687Z" fill="#224497"/>
<path d="M15.793 15.4428L16.346 2.99999L17.3139 15.4428H15.793Z" fill="#224497"/>
<path d="M17.7275 15.7192L22.8429 11.5717L18.8335 16.687L17.7275 15.7192Z" fill="#224497"/>
<path d="M18.9717 17.3782L31.2762 17.9313L18.9717 18.8989V17.3782Z" fill="#224497"/>
<path d="M16.3443 20.2816C17.4896 20.2816 18.418 19.3531 18.418 18.2078C18.418 17.0625 17.4896 16.134 16.3443 16.134C15.199 16.134 14.2705 17.0625 14.2705 18.2078C14.2705 19.3531 15.199 20.2816 16.3443 20.2816Z" fill="#ED1C24"/>
</svg>
