<svg width="33" height="33" viewBox="0 0 33 33" fill="none" xmlns="http://www.w3.org/2000/svg">
<path d="M32.9297 16.3821C32.9297 25.2186 25.7662 32.3821 16.9297 32.3821C8.09313 32.3821 0.929688 25.2186 0.929688 16.3821C0.929688 7.54552 8.09313 0.38208 16.9297 0.38208C25.7662 0.38208 32.9297 7.54552 32.9297 16.3821Z" fill="#224497"/>
<path d="M14.3725 19.2812L1.92969 18.59L14.3725 17.6222V19.2812Z" fill="white"/>
<path d="M14.6484 17.0691L10.7773 12.2302L15.7544 16.1013L14.6484 17.0691Z" fill="white"/>
<path d="M16.4463 15.8249L16.9994 3.38207L17.9672 15.8249H16.4463Z" fill="white"/>
<path d="M18.3809 16.1013L23.4962 11.9538L19.4868 17.0691L18.3809 16.1013Z" fill="white"/>
<path d="M19.625 17.7603L31.9295 18.3134L19.625 19.281V17.7603Z" fill="white"/>
<path d="M16.9976 20.6636C18.1429 20.6636 19.0714 19.7352 19.0714 18.5899C19.0714 17.4446 18.1429 16.5161 16.9976 16.5161C15.8523 16.5161 14.9238 17.4446 14.9238 18.5899C14.9238 19.7352 15.8523 20.6636 16.9976 20.6636Z" fill="#ED1C24"/>
</svg>
