<svg width="17" height="17" viewBox="0 0 17 17" fill="none" xmlns="http://www.w3.org/2000/svg">
<path d="M16.6299 8.25897C16.6299 12.6772 13.0482 16.259 8.62988 16.259C4.21161 16.259 0.629883 12.6772 0.629883 8.25897C0.629883 3.84069 4.21161 0.258972 8.62988 0.258972C13.0482 0.258972 16.6299 3.84069 16.6299 8.25897Z" fill="white"/>
<path d="M7.43645 10.6785L1.62988 10.3559L7.43645 9.90429V10.6785Z" fill="#224497"/>
<path d="M7.56536 9.64618L5.75887 7.38805L8.08146 9.19454L7.56536 9.64618Z" fill="#224497"/>
<path d="M8.40398 9.06554L8.66207 3.25897L9.11372 9.06554H8.40398Z" fill="#224497"/>
<path d="M9.30725 9.19457L11.6944 7.25907L9.82335 9.64621L9.30725 9.19457Z" fill="#224497"/>
<path d="M9.88786 9.96875L15.6299 10.2268L9.88786 10.6784V9.96875Z" fill="#224497"/>
<path d="M8.66168 11.3236C9.19616 11.3236 9.62943 10.8903 9.62943 10.3559C9.62943 9.82139 9.19616 9.38811 8.66168 9.38811C8.12721 9.38811 7.69394 9.82139 7.69394 10.3559C7.69394 10.8903 8.12721 11.3236 8.66168 11.3236Z" fill="#ED1C24"/>
</svg>
