<svg width="17" height="17" viewBox="0 0 17 17" fill="none" xmlns="http://www.w3.org/2000/svg">
<path d="M16.8584 8.25897C16.8584 12.6772 13.2767 16.259 8.8584 16.259C4.44012 16.259 0.858398 12.6772 0.858398 8.25897C0.858398 3.84069 4.44012 0.258972 8.8584 0.258972C13.2767 0.258972 16.8584 3.84069 16.8584 8.25897Z" fill="#224497"/>
<path d="M7.66496 10.6785L1.8584 10.3559L7.66496 9.90429V10.6785Z" fill="white"/>
<path d="M7.79388 9.64618L5.98739 7.38805L8.30998 9.19454L7.79388 9.64618Z" fill="white"/>
<path d="M8.63249 9.06554L8.89059 3.25897L9.34223 9.06554H8.63249Z" fill="white"/>
<path d="M9.53577 9.19457L11.9229 7.25907L10.0519 9.64621L9.53577 9.19457Z" fill="white"/>
<path d="M10.1164 9.96875L15.8584 10.2268L10.1164 10.6784V9.96875Z" fill="white"/>
<path d="M8.8902 11.3236C9.42467 11.3236 9.85795 10.8903 9.85795 10.3559C9.85795 9.82139 9.42467 9.38811 8.8902 9.38811C8.35573 9.38811 7.92245 9.82139 7.92245 10.3559C7.92245 10.8903 8.35573 11.3236 8.8902 11.3236Z" fill="#ED1C24"/>
</svg>
